<?xml version="1.0" encoding="utf-8" standalone="no"?>
<!DOCTYPE svg PUBLIC "-//W3C//DTD SVG 1.1//EN"
  "http://www.w3.org/Graphics/SVG/1.1/DTD/svg11.dtd">
<!-- Created with matplotlib (http://matplotlib.org/) -->
<svg height="345.6pt" version="1.1" viewBox="0 0 460.8 345.6" width="460.8pt" xmlns="http://www.w3.org/2000/svg" xmlns:xlink="http://www.w3.org/1999/xlink">
 <defs>
  <style type="text/css">
*{stroke-linecap:butt;stroke-linejoin:round;}
  </style>
 </defs>
 <g id="figure_1">
  <g id="patch_1">
   <path d="M 0 345.6 
L 460.8 345.6 
L 460.8 0 
L 0 0 
z
" style="fill:#ffffff;"/>
  </g>
  <g id="axes_1">
   <g id="patch_2">
    <path d="M 38.27 287.8 
L 447.48 287.8 
L 447.48 13.32 
L 38.27 13.32 
z
" style="fill:#ffffff;"/>
   </g>
   <g id="matplotlib.axis_1">
    <g id="xtick_1">
     <g id="line2d_1">
      <defs>
       <path d="M 0 0 
L 0 3.5 
" id="mc213240787" style="stroke:#000000;stroke-width:0.8;"/>
      </defs>
      <g>
       <use style="stroke:#000000;stroke-width:0.8;" x="38.27" xlink:href="#mc213240787" y="287.8"/>
      </g>
     </g>
     <g id="text_1">
      <!-- A91 -->
      <defs>
       <path d="M 34.1875 63.1875 
L 20.796875 26.90625 
L 47.609375 26.90625 
z
M 28.609375 72.90625 
L 39.796875 72.90625 
L 67.578125 0 
L 57.328125 0 
L 50.6875 18.703125 
L 17.828125 18.703125 
L 11.1875 0 
L 0.78125 0 
z
" id="DejaVuSans-41"/>
       <path d="M 10.984375 1.515625 
L 10.984375 10.5 
Q 14.703125 8.734375 18.5 7.8125 
Q 22.3125 6.890625 25.984375 6.890625 
Q 35.75 6.890625 40.890625 13.453125 
Q 46.046875 20.015625 46.78125 33.40625 
Q 43.953125 29.203125 39.59375 26.953125 
Q 35.25 24.703125 29.984375 24.703125 
Q 19.046875 24.703125 12.671875 31.3125 
Q 6.296875 37.9375 6.296875 49.421875 
Q 6.296875 60.640625 12.9375 67.421875 
Q 19.578125 74.21875 30.609375 74.21875 
Q 43.265625 74.21875 49.921875 64.515625 
Q 56.59375 54.828125 56.59375 36.375 
Q 56.59375 19.140625 48.40625 8.859375 
Q 40.234375 -1.421875 26.421875 -1.421875 
Q 22.703125 -1.421875 18.890625 -0.6875 
Q 15.09375 0.046875 10.984375 1.515625 
z
M 30.609375 32.421875 
Q 37.25 32.421875 41.125 36.953125 
Q 45.015625 41.5 45.015625 49.421875 
Q 45.015625 57.28125 41.125 61.84375 
Q 37.25 66.40625 30.609375 66.40625 
Q 23.96875 66.40625 20.09375 61.84375 
Q 16.21875 57.28125 16.21875 49.421875 
Q 16.21875 41.5 20.09375 36.953125 
Q 23.96875 32.421875 30.609375 32.421875 
z
" id="DejaVuSans-39"/>
       <path d="M 12.40625 8.296875 
L 28.515625 8.296875 
L 28.515625 63.921875 
L 10.984375 60.40625 
L 10.984375 69.390625 
L 28.421875 72.90625 
L 38.28125 72.90625 
L 38.28125 8.296875 
L 54.390625 8.296875 
L 54.390625 0 
L 12.40625 0 
z
" id="DejaVuSans-31"/>
      </defs>
      <g transform="translate(41.029375 314.365625)rotate(-90)scale(0.1 -0.1)">
       <use xlink:href="#DejaVuSans-41"/>
       <use x="68.408203" xlink:href="#DejaVuSans-39"/>
       <use x="132.03125" xlink:href="#DejaVuSans-31"/>
      </g>
     </g>
    </g>
    <g id="xtick_2">
     <g id="line2d_2">
      <g>
       <use style="stroke:#000000;stroke-width:0.8;" x="54.803737" xlink:href="#mc213240787" y="287.8"/>
      </g>
     </g>
     <g id="text_2">
      <!-- A99 -->
      <g transform="translate(57.563112 314.365625)rotate(-90)scale(0.1 -0.1)">
       <use xlink:href="#DejaVuSans-41"/>
       <use x="68.408203" xlink:href="#DejaVuSans-39"/>
       <use x="132.03125" xlink:href="#DejaVuSans-39"/>
      </g>
     </g>
    </g>
    <g id="xtick_3">
     <g id="line2d_3">
      <g>
       <use style="stroke:#000000;stroke-width:0.8;" x="71.337475" xlink:href="#mc213240787" y="287.8"/>
      </g>
     </g>
     <g id="text_3">
      <!-- A107 -->
      <defs>
       <path d="M 31.78125 66.40625 
Q 24.171875 66.40625 20.328125 58.90625 
Q 16.5 51.421875 16.5 36.375 
Q 16.5 21.390625 20.328125 13.890625 
Q 24.171875 6.390625 31.78125 6.390625 
Q 39.453125 6.390625 43.28125 13.890625 
Q 47.125 21.390625 47.125 36.375 
Q 47.125 51.421875 43.28125 58.90625 
Q 39.453125 66.40625 31.78125 66.40625 
z
M 31.78125 74.21875 
Q 44.046875 74.21875 50.515625 64.515625 
Q 56.984375 54.828125 56.984375 36.375 
Q 56.984375 17.96875 50.515625 8.265625 
Q 44.046875 -1.421875 31.78125 -1.421875 
Q 19.53125 -1.421875 13.0625 8.265625 
Q 6.59375 17.96875 6.59375 36.375 
Q 6.59375 54.828125 13.0625 64.515625 
Q 19.53125 74.21875 31.78125 74.21875 
z
" id="DejaVuSans-30"/>
       <path d="M 8.203125 72.90625 
L 55.078125 72.90625 
L 55.078125 68.703125 
L 28.609375 0 
L 18.3125 0 
L 43.21875 64.59375 
L 8.203125 64.59375 
z
" id="DejaVuSans-37"/>
      </defs>
      <g transform="translate(74.09685 320.728125)rotate(-90)scale(0.1 -0.1)">
       <use xlink:href="#DejaVuSans-41"/>
       <use x="68.408203" xlink:href="#DejaVuSans-31"/>
       <use x="132.03125" xlink:href="#DejaVuSans-30"/>
       <use x="195.654297" xlink:href="#DejaVuSans-37"/>
      </g>
     </g>
    </g>
    <g id="xtick_4">
     <g id="line2d_4">
      <g>
       <use style="stroke:#000000;stroke-width:0.8;" x="87.871212" xlink:href="#mc213240787" y="287.8"/>
      </g>
     </g>
     <g id="text_4">
      <!-- A115 -->
      <defs>
       <path d="M 10.796875 72.90625 
L 49.515625 72.90625 
L 49.515625 64.59375 
L 19.828125 64.59375 
L 19.828125 46.734375 
Q 21.96875 47.46875 24.109375 47.828125 
Q 26.265625 48.1875 28.421875 48.1875 
Q 40.625 48.1875 47.75 41.5 
Q 54.890625 34.8125 54.890625 23.390625 
Q 54.890625 11.625 47.5625 5.09375 
Q 40.234375 -1.421875 26.90625 -1.421875 
Q 22.3125 -1.421875 17.546875 -0.640625 
Q 12.796875 0.140625 7.71875 1.703125 
L 7.71875 11.625 
Q 12.109375 9.234375 16.796875 8.0625 
Q 21.484375 6.890625 26.703125 6.890625 
Q 35.15625 6.890625 40.078125 11.328125 
Q 45.015625 15.765625 45.015625 23.390625 
Q 45.015625 31 40.078125 35.4375 
Q 35.15625 39.890625 26.703125 39.890625 
Q 22.75 39.890625 18.8125 39.015625 
Q 14.890625 38.140625 10.796875 36.28125 
z
" id="DejaVuSans-35"/>
      </defs>
      <g transform="translate(90.630587 320.728125)rotate(-90)scale(0.1 -0.1)">
       <use xlink:href="#DejaVuSans-41"/>
       <use x="68.408203" xlink:href="#DejaVuSans-31"/>
       <use x="132.03125" xlink:href="#DejaVuSans-31"/>
       <use x="195.654297" xlink:href="#DejaVuSans-35"/>
      </g>
     </g>
    </g>
    <g id="xtick_5">
     <g id="line2d_5">
      <g>
       <use style="stroke:#000000;stroke-width:0.8;" x="104.404949" xlink:href="#mc213240787" y="287.8"/>
      </g>
     </g>
     <g id="text_5">
      <!-- A123 -->
      <defs>
       <path d="M 19.1875 8.296875 
L 53.609375 8.296875 
L 53.609375 0 
L 7.328125 0 
L 7.328125 8.296875 
Q 12.9375 14.109375 22.625 23.890625 
Q 32.328125 33.6875 34.8125 36.53125 
Q 39.546875 41.84375 41.421875 45.53125 
Q 43.3125 49.21875 43.3125 52.78125 
Q 43.3125 58.59375 39.234375 62.25 
Q 35.15625 65.921875 28.609375 65.921875 
Q 23.96875 65.921875 18.8125 64.3125 
Q 13.671875 62.703125 7.8125 59.421875 
L 7.8125 69.390625 
Q 13.765625 71.78125 18.9375 73 
Q 24.125 74.21875 28.421875 74.21875 
Q 39.75 74.21875 46.484375 68.546875 
Q 53.21875 62.890625 53.21875 53.421875 
Q 53.21875 48.921875 51.53125 44.890625 
Q 49.859375 40.875 45.40625 35.40625 
Q 44.1875 33.984375 37.640625 27.21875 
Q 31.109375 20.453125 19.1875 8.296875 
z
" id="DejaVuSans-32"/>
       <path d="M 40.578125 39.3125 
Q 47.65625 37.796875 51.625 33 
Q 55.609375 28.21875 55.609375 21.1875 
Q 55.609375 10.40625 48.1875 4.484375 
Q 40.765625 -1.421875 27.09375 -1.421875 
Q 22.515625 -1.421875 17.65625 -0.515625 
Q 12.796875 0.390625 7.625 2.203125 
L 7.625 11.71875 
Q 11.71875 9.328125 16.59375 8.109375 
Q 21.484375 6.890625 26.8125 6.890625 
Q 36.078125 6.890625 40.9375 10.546875 
Q 45.796875 14.203125 45.796875 21.1875 
Q 45.796875 27.640625 41.28125 31.265625 
Q 36.765625 34.90625 28.71875 34.90625 
L 20.21875 34.90625 
L 20.21875 43.015625 
L 29.109375 43.015625 
Q 36.375 43.015625 40.234375 45.921875 
Q 44.09375 48.828125 44.09375 54.296875 
Q 44.09375 59.90625 40.109375 62.90625 
Q 36.140625 65.921875 28.71875 65.921875 
Q 24.65625 65.921875 20.015625 65.03125 
Q 15.375 64.15625 9.8125 62.3125 
L 9.8125 71.09375 
Q 15.4375 72.65625 20.34375 73.4375 
Q 25.25 74.21875 29.59375 74.21875 
Q 40.828125 74.21875 47.359375 69.109375 
Q 53.90625 64.015625 53.90625 55.328125 
Q 53.90625 49.265625 50.4375 45.09375 
Q 46.96875 40.921875 40.578125 39.3125 
z
" id="DejaVuSans-33"/>
      </defs>
      <g transform="translate(107.164324 320.728125)rotate(-90)scale(0.1 -0.1)">
       <use xlink:href="#DejaVuSans-41"/>
       <use x="68.408203" xlink:href="#DejaVuSans-31"/>
       <use x="132.03125" xlink:href="#DejaVuSans-32"/>
       <use x="195.654297" xlink:href="#DejaVuSans-33"/>
      </g>
     </g>
    </g>
    <g id="xtick_6">
     <g id="line2d_6">
      <g>
       <use style="stroke:#000000;stroke-width:0.8;" x="120.938687" xlink:href="#mc213240787" y="287.8"/>
      </g>
     </g>
     <g id="text_6">
      <!-- A131 -->
      <g transform="translate(123.698062 320.728125)rotate(-90)scale(0.1 -0.1)">
       <use xlink:href="#DejaVuSans-41"/>
       <use x="68.408203" xlink:href="#DejaVuSans-31"/>
       <use x="132.03125" xlink:href="#DejaVuSans-33"/>
       <use x="195.654297" xlink:href="#DejaVuSans-31"/>
      </g>
     </g>
    </g>
    <g id="xtick_7">
     <g id="line2d_7">
      <g>
       <use style="stroke:#000000;stroke-width:0.8;" x="137.472424" xlink:href="#mc213240787" y="287.8"/>
      </g>
     </g>
     <g id="text_7">
      <!-- A139 -->
      <g transform="translate(140.231799 320.728125)rotate(-90)scale(0.1 -0.1)">
       <use xlink:href="#DejaVuSans-41"/>
       <use x="68.408203" xlink:href="#DejaVuSans-31"/>
       <use x="132.03125" xlink:href="#DejaVuSans-33"/>
       <use x="195.654297" xlink:href="#DejaVuSans-39"/>
      </g>
     </g>
    </g>
    <g id="xtick_8">
     <g id="line2d_8">
      <g>
       <use style="stroke:#000000;stroke-width:0.8;" x="154.006162" xlink:href="#mc213240787" y="287.8"/>
      </g>
     </g>
     <g id="text_8">
      <!-- A147 -->
      <defs>
       <path d="M 37.796875 64.3125 
L 12.890625 25.390625 
L 37.796875 25.390625 
z
M 35.203125 72.90625 
L 47.609375 72.90625 
L 47.609375 25.390625 
L 58.015625 25.390625 
L 58.015625 17.1875 
L 47.609375 17.1875 
L 47.609375 0 
L 37.796875 0 
L 37.796875 17.1875 
L 4.890625 17.1875 
L 4.890625 26.703125 
z
" id="DejaVuSans-34"/>
      </defs>
      <g transform="translate(156.765537 320.728125)rotate(-90)scale(0.1 -0.1)">
       <use xlink:href="#DejaVuSans-41"/>
       <use x="68.408203" xlink:href="#DejaVuSans-31"/>
       <use x="132.03125" xlink:href="#DejaVuSans-34"/>
       <use x="195.654297" xlink:href="#DejaVuSans-37"/>
      </g>
     </g>
    </g>
    <g id="xtick_9">
     <g id="line2d_9">
      <g>
       <use style="stroke:#000000;stroke-width:0.8;" x="170.539899" xlink:href="#mc213240787" y="287.8"/>
      </g>
     </g>
     <g id="text_9">
      <!-- A155 -->
      <g transform="translate(173.299274 320.728125)rotate(-90)scale(0.1 -0.1)">
       <use xlink:href="#DejaVuSans-41"/>
       <use x="68.408203" xlink:href="#DejaVuSans-31"/>
       <use x="132.03125" xlink:href="#DejaVuSans-35"/>
       <use x="195.654297" xlink:href="#DejaVuSans-35"/>
      </g>
     </g>
    </g>
    <g id="xtick_10">
     <g id="line2d_10">
      <g>
       <use style="stroke:#000000;stroke-width:0.8;" x="187.073636" xlink:href="#mc213240787" y="287.8"/>
      </g>
     </g>
     <g id="text_10">
      <!-- A163 -->
      <defs>
       <path d="M 33.015625 40.375 
Q 26.375 40.375 22.484375 35.828125 
Q 18.609375 31.296875 18.609375 23.390625 
Q 18.609375 15.53125 22.484375 10.953125 
Q 26.375 6.390625 33.015625 6.390625 
Q 39.65625 6.390625 43.53125 10.953125 
Q 47.40625 15.53125 47.40625 23.390625 
Q 47.40625 31.296875 43.53125 35.828125 
Q 39.65625 40.375 33.015625 40.375 
z
M 52.59375 71.296875 
L 52.59375 62.3125 
Q 48.875 64.0625 45.09375 64.984375 
Q 41.3125 65.921875 37.59375 65.921875 
Q 27.828125 65.921875 22.671875 59.328125 
Q 17.53125 52.734375 16.796875 39.40625 
Q 19.671875 43.65625 24.015625 45.921875 
Q 28.375 48.1875 33.59375 48.1875 
Q 44.578125 48.1875 50.953125 41.515625 
Q 57.328125 34.859375 57.328125 23.390625 
Q 57.328125 12.15625 50.6875 5.359375 
Q 44.046875 -1.421875 33.015625 -1.421875 
Q 20.359375 -1.421875 13.671875 8.265625 
Q 6.984375 17.96875 6.984375 36.375 
Q 6.984375 53.65625 15.1875 63.9375 
Q 23.390625 74.21875 37.203125 74.21875 
Q 40.921875 74.21875 44.703125 73.484375 
Q 48.484375 72.75 52.59375 71.296875 
z
" id="DejaVuSans-36"/>
      </defs>
      <g transform="translate(189.833011 320.728125)rotate(-90)scale(0.1 -0.1)">
       <use xlink:href="#DejaVuSans-41"/>
       <use x="68.408203" xlink:href="#DejaVuSans-31"/>
       <use x="132.03125" xlink:href="#DejaVuSans-36"/>
       <use x="195.654297" xlink:href="#DejaVuSans-33"/>
      </g>
     </g>
    </g>
    <g id="xtick_11">
     <g id="line2d_11">
      <g>
       <use style="stroke:#000000;stroke-width:0.8;" x="203.607374" xlink:href="#mc213240787" y="287.8"/>
      </g>
     </g>
     <g id="text_11">
      <!-- A171 -->
      <g transform="translate(206.366749 320.728125)rotate(-90)scale(0.1 -0.1)">
       <use xlink:href="#DejaVuSans-41"/>
       <use x="68.408203" xlink:href="#DejaVuSans-31"/>
       <use x="132.03125" xlink:href="#DejaVuSans-37"/>
       <use x="195.654297" xlink:href="#DejaVuSans-31"/>
      </g>
     </g>
    </g>
    <g id="xtick_12">
     <g id="line2d_12">
      <g>
       <use style="stroke:#000000;stroke-width:0.8;" x="220.141111" xlink:href="#mc213240787" y="287.8"/>
      </g>
     </g>
     <g id="text_12">
      <!-- A179 -->
      <g transform="translate(222.900486 320.728125)rotate(-90)scale(0.1 -0.1)">
       <use xlink:href="#DejaVuSans-41"/>
       <use x="68.408203" xlink:href="#DejaVuSans-31"/>
       <use x="132.03125" xlink:href="#DejaVuSans-37"/>
       <use x="195.654297" xlink:href="#DejaVuSans-39"/>
      </g>
     </g>
    </g>
    <g id="xtick_13">
     <g id="line2d_13">
      <g>
       <use style="stroke:#000000;stroke-width:0.8;" x="236.674848" xlink:href="#mc213240787" y="287.8"/>
      </g>
     </g>
     <g id="text_13">
      <!-- A187 -->
      <defs>
       <path d="M 31.78125 34.625 
Q 24.75 34.625 20.71875 30.859375 
Q 16.703125 27.09375 16.703125 20.515625 
Q 16.703125 13.921875 20.71875 10.15625 
Q 24.75 6.390625 31.78125 6.390625 
Q 38.8125 6.390625 42.859375 10.171875 
Q 46.921875 13.96875 46.921875 20.515625 
Q 46.921875 27.09375 42.890625 30.859375 
Q 38.875 34.625 31.78125 34.625 
z
M 21.921875 38.8125 
Q 15.578125 40.375 12.03125 44.71875 
Q 8.5 49.078125 8.5 55.328125 
Q 8.5 64.0625 14.71875 69.140625 
Q 20.953125 74.21875 31.78125 74.21875 
Q 42.671875 74.21875 48.875 69.140625 
Q 55.078125 64.0625 55.078125 55.328125 
Q 55.078125 49.078125 51.53125 44.71875 
Q 48 40.375 41.703125 38.8125 
Q 48.828125 37.15625 52.796875 32.3125 
Q 56.78125 27.484375 56.78125 20.515625 
Q 56.78125 9.90625 50.3125 4.234375 
Q 43.84375 -1.421875 31.78125 -1.421875 
Q 19.734375 -1.421875 13.25 4.234375 
Q 6.78125 9.90625 6.78125 20.515625 
Q 6.78125 27.484375 10.78125 32.3125 
Q 14.796875 37.15625 21.921875 38.8125 
z
M 18.3125 54.390625 
Q 18.3125 48.734375 21.84375 45.5625 
Q 25.390625 42.390625 31.78125 42.390625 
Q 38.140625 42.390625 41.71875 45.5625 
Q 45.3125 48.734375 45.3125 54.390625 
Q 45.3125 60.0625 41.71875 63.234375 
Q 38.140625 66.40625 31.78125 66.40625 
Q 25.390625 66.40625 21.84375 63.234375 
Q 18.3125 60.0625 18.3125 54.390625 
z
" id="DejaVuSans-38"/>
      </defs>
      <g transform="translate(239.434223 320.728125)rotate(-90)scale(0.1 -0.1)">
       <use xlink:href="#DejaVuSans-41"/>
       <use x="68.408203" xlink:href="#DejaVuSans-31"/>
       <use x="132.03125" xlink:href="#DejaVuSans-38"/>
       <use x="195.654297" xlink:href="#DejaVuSans-37"/>
      </g>
     </g>
    </g>
    <g id="xtick_14">
     <g id="line2d_14">
      <g>
       <use style="stroke:#000000;stroke-width:0.8;" x="253.208586" xlink:href="#mc213240787" y="287.8"/>
      </g>
     </g>
     <g id="text_14">
      <!-- A195 -->
      <g transform="translate(255.967961 320.728125)rotate(-90)scale(0.1 -0.1)">
       <use xlink:href="#DejaVuSans-41"/>
       <use x="68.408203" xlink:href="#DejaVuSans-31"/>
       <use x="132.03125" xlink:href="#DejaVuSans-39"/>
       <use x="195.654297" xlink:href="#DejaVuSans-35"/>
      </g>
     </g>
    </g>
    <g id="xtick_15">
     <g id="line2d_15">
      <g>
       <use style="stroke:#000000;stroke-width:0.8;" x="269.742323" xlink:href="#mc213240787" y="287.8"/>
      </g>
     </g>
     <g id="text_15">
      <!-- A203 -->
      <g transform="translate(272.501698 320.728125)rotate(-90)scale(0.1 -0.1)">
       <use xlink:href="#DejaVuSans-41"/>
       <use x="68.408203" xlink:href="#DejaVuSans-32"/>
       <use x="132.03125" xlink:href="#DejaVuSans-30"/>
       <use x="195.654297" xlink:href="#DejaVuSans-33"/>
      </g>
     </g>
    </g>
    <g id="xtick_16">
     <g id="line2d_16">
      <g>
       <use style="stroke:#000000;stroke-width:0.8;" x="286.276061" xlink:href="#mc213240787" y="287.8"/>
      </g>
     </g>
     <g id="text_16">
      <!-- A211 -->
      <g transform="translate(289.035436 320.728125)rotate(-90)scale(0.1 -0.1)">
       <use xlink:href="#DejaVuSans-41"/>
       <use x="68.408203" xlink:href="#DejaVuSans-32"/>
       <use x="132.03125" xlink:href="#DejaVuSans-31"/>
       <use x="195.654297" xlink:href="#DejaVuSans-31"/>
      </g>
     </g>
    </g>
    <g id="xtick_17">
     <g id="line2d_17">
      <g>
       <use style="stroke:#000000;stroke-width:0.8;" x="302.809798" xlink:href="#mc213240787" y="287.8"/>
      </g>
     </g>
     <g id="text_17">
      <!-- A219 -->
      <g transform="translate(305.569173 320.728125)rotate(-90)scale(0.1 -0.1)">
       <use xlink:href="#DejaVuSans-41"/>
       <use x="68.408203" xlink:href="#DejaVuSans-32"/>
       <use x="132.03125" xlink:href="#DejaVuSans-31"/>
       <use x="195.654297" xlink:href="#DejaVuSans-39"/>
      </g>
     </g>
    </g>
    <g id="xtick_18">
     <g id="line2d_18">
      <g>
       <use style="stroke:#000000;stroke-width:0.8;" x="319.343535" xlink:href="#mc213240787" y="287.8"/>
      </g>
     </g>
     <g id="text_18">
      <!-- A227 -->
      <g transform="translate(322.10291 320.728125)rotate(-90)scale(0.1 -0.1)">
       <use xlink:href="#DejaVuSans-41"/>
       <use x="68.408203" xlink:href="#DejaVuSans-32"/>
       <use x="132.03125" xlink:href="#DejaVuSans-32"/>
       <use x="195.654297" xlink:href="#DejaVuSans-37"/>
      </g>
     </g>
    </g>
    <g id="xtick_19">
     <g id="line2d_19">
      <g>
       <use style="stroke:#000000;stroke-width:0.8;" x="335.877273" xlink:href="#mc213240787" y="287.8"/>
      </g>
     </g>
     <g id="text_19">
      <!-- A235 -->
      <g transform="translate(338.636648 320.728125)rotate(-90)scale(0.1 -0.1)">
       <use xlink:href="#DejaVuSans-41"/>
       <use x="68.408203" xlink:href="#DejaVuSans-32"/>
       <use x="132.03125" xlink:href="#DejaVuSans-33"/>
       <use x="195.654297" xlink:href="#DejaVuSans-35"/>
      </g>
     </g>
    </g>
    <g id="xtick_20">
     <g id="line2d_20">
      <g>
       <use style="stroke:#000000;stroke-width:0.8;" x="352.41101" xlink:href="#mc213240787" y="287.8"/>
      </g>
     </g>
     <g id="text_20">
      <!-- A243 -->
      <g transform="translate(355.170385 320.728125)rotate(-90)scale(0.1 -0.1)">
       <use xlink:href="#DejaVuSans-41"/>
       <use x="68.408203" xlink:href="#DejaVuSans-32"/>
       <use x="132.03125" xlink:href="#DejaVuSans-34"/>
       <use x="195.654297" xlink:href="#DejaVuSans-33"/>
      </g>
     </g>
    </g>
    <g id="xtick_21">
     <g id="line2d_21">
      <g>
       <use style="stroke:#000000;stroke-width:0.8;" x="368.944747" xlink:href="#mc213240787" y="287.8"/>
      </g>
     </g>
     <g id="text_21">
      <!-- A251 -->
      <g transform="translate(371.704122 320.728125)rotate(-90)scale(0.1 -0.1)">
       <use xlink:href="#DejaVuSans-41"/>
       <use x="68.408203" xlink:href="#DejaVuSans-32"/>
       <use x="132.03125" xlink:href="#DejaVuSans-35"/>
       <use x="195.654297" xlink:href="#DejaVuSans-31"/>
      </g>
     </g>
    </g>
    <g id="xtick_22">
     <g id="line2d_22">
      <g>
       <use style="stroke:#000000;stroke-width:0.8;" x="385.478485" xlink:href="#mc213240787" y="287.8"/>
      </g>
     </g>
     <g id="text_22">
      <!-- A259 -->
      <g transform="translate(388.23786 320.728125)rotate(-90)scale(0.1 -0.1)">
       <use xlink:href="#DejaVuSans-41"/>
       <use x="68.408203" xlink:href="#DejaVuSans-32"/>
       <use x="132.03125" xlink:href="#DejaVuSans-35"/>
       <use x="195.654297" xlink:href="#DejaVuSans-39"/>
      </g>
     </g>
    </g>
    <g id="xtick_23">
     <g id="line2d_23">
      <g>
       <use style="stroke:#000000;stroke-width:0.8;" x="402.012222" xlink:href="#mc213240787" y="287.8"/>
      </g>
     </g>
     <g id="text_23">
      <!-- A267 -->
      <g transform="translate(404.771597 320.728125)rotate(-90)scale(0.1 -0.1)">
       <use xlink:href="#DejaVuSans-41"/>
       <use x="68.408203" xlink:href="#DejaVuSans-32"/>
       <use x="132.03125" xlink:href="#DejaVuSans-36"/>
       <use x="195.654297" xlink:href="#DejaVuSans-37"/>
      </g>
     </g>
    </g>
    <g id="xtick_24">
     <g id="line2d_24">
      <g>
       <use style="stroke:#000000;stroke-width:0.8;" x="418.54596" xlink:href="#mc213240787" y="287.8"/>
      </g>
     </g>
     <g id="text_24">
      <!-- A275 -->
      <g transform="translate(421.305335 320.728125)rotate(-90)scale(0.1 -0.1)">
       <use xlink:href="#DejaVuSans-41"/>
       <use x="68.408203" xlink:href="#DejaVuSans-32"/>
       <use x="132.03125" xlink:href="#DejaVuSans-37"/>
       <use x="195.654297" xlink:href="#DejaVuSans-35"/>
      </g>
     </g>
    </g>
    <g id="xtick_25">
     <g id="line2d_25">
      <g>
       <use style="stroke:#000000;stroke-width:0.8;" x="435.079697" xlink:href="#mc213240787" y="287.8"/>
      </g>
     </g>
     <g id="text_25">
      <!-- A283 -->
      <g transform="translate(437.839072 320.728125)rotate(-90)scale(0.1 -0.1)">
       <use xlink:href="#DejaVuSans-41"/>
       <use x="68.408203" xlink:href="#DejaVuSans-32"/>
       <use x="132.03125" xlink:href="#DejaVuSans-38"/>
       <use x="195.654297" xlink:href="#DejaVuSans-33"/>
      </g>
     </g>
    </g>
    <g id="text_26">
     <!-- Residue index -->
     <defs>
      <path d="M 44.390625 34.1875 
Q 47.5625 33.109375 50.5625 29.59375 
Q 53.5625 26.078125 56.59375 19.921875 
L 66.609375 0 
L 56 0 
L 46.6875 18.703125 
Q 43.0625 26.03125 39.671875 28.421875 
Q 36.28125 30.8125 30.421875 30.8125 
L 19.671875 30.8125 
L 19.671875 0 
L 9.8125 0 
L 9.8125 72.90625 
L 32.078125 72.90625 
Q 44.578125 72.90625 50.734375 67.671875 
Q 56.890625 62.453125 56.890625 51.90625 
Q 56.890625 45.015625 53.6875 40.46875 
Q 50.484375 35.9375 44.390625 34.1875 
z
M 19.671875 64.796875 
L 19.671875 38.921875 
L 32.078125 38.921875 
Q 39.203125 38.921875 42.84375 42.21875 
Q 46.484375 45.515625 46.484375 51.90625 
Q 46.484375 58.296875 42.84375 61.546875 
Q 39.203125 64.796875 32.078125 64.796875 
z
" id="DejaVuSans-52"/>
      <path d="M 56.203125 29.59375 
L 56.203125 25.203125 
L 14.890625 25.203125 
Q 15.484375 15.921875 20.484375 11.0625 
Q 25.484375 6.203125 34.421875 6.203125 
Q 39.59375 6.203125 44.453125 7.46875 
Q 49.3125 8.734375 54.109375 11.28125 
L 54.109375 2.78125 
Q 49.265625 0.734375 44.1875 -0.34375 
Q 39.109375 -1.421875 33.890625 -1.421875 
Q 20.796875 -1.421875 13.15625 6.1875 
Q 5.515625 13.8125 5.515625 26.8125 
Q 5.515625 40.234375 12.765625 48.109375 
Q 20.015625 56 32.328125 56 
Q 43.359375 56 49.78125 48.890625 
Q 56.203125 41.796875 56.203125 29.59375 
z
M 47.21875 32.234375 
Q 47.125 39.59375 43.09375 43.984375 
Q 39.0625 48.390625 32.421875 48.390625 
Q 24.90625 48.390625 20.390625 44.140625 
Q 15.875 39.890625 15.1875 32.171875 
z
" id="DejaVuSans-65"/>
      <path d="M 44.28125 53.078125 
L 44.28125 44.578125 
Q 40.484375 46.53125 36.375 47.5 
Q 32.28125 48.484375 27.875 48.484375 
Q 21.1875 48.484375 17.84375 46.4375 
Q 14.5 44.390625 14.5 40.28125 
Q 14.5 37.15625 16.890625 35.375 
Q 19.28125 33.59375 26.515625 31.984375 
L 29.59375 31.296875 
Q 39.15625 29.25 43.1875 25.515625 
Q 47.21875 21.78125 47.21875 15.09375 
Q 47.21875 7.46875 41.1875 3.015625 
Q 35.15625 -1.421875 24.609375 -1.421875 
Q 20.21875 -1.421875 15.453125 -0.5625 
Q 10.6875 0.296875 5.421875 2 
L 5.421875 11.28125 
Q 10.40625 8.6875 15.234375 7.390625 
Q 20.0625 6.109375 24.8125 6.109375 
Q 31.15625 6.109375 34.5625 8.28125 
Q 37.984375 10.453125 37.984375 14.40625 
Q 37.984375 18.0625 35.515625 20.015625 
Q 33.0625 21.96875 24.703125 23.78125 
L 21.578125 24.515625 
Q 13.234375 26.265625 9.515625 29.90625 
Q 5.8125 33.546875 5.8125 39.890625 
Q 5.8125 47.609375 11.28125 51.796875 
Q 16.75 56 26.8125 56 
Q 31.78125 56 36.171875 55.265625 
Q 40.578125 54.546875 44.28125 53.078125 
z
" id="DejaVuSans-73"/>
      <path d="M 9.421875 54.6875 
L 18.40625 54.6875 
L 18.40625 0 
L 9.421875 0 
z
M 9.421875 75.984375 
L 18.40625 75.984375 
L 18.40625 64.59375 
L 9.421875 64.59375 
z
" id="DejaVuSans-69"/>
      <path d="M 45.40625 46.390625 
L 45.40625 75.984375 
L 54.390625 75.984375 
L 54.390625 0 
L 45.40625 0 
L 45.40625 8.203125 
Q 42.578125 3.328125 38.25 0.953125 
Q 33.9375 -1.421875 27.875 -1.421875 
Q 17.96875 -1.421875 11.734375 6.484375 
Q 5.515625 14.40625 5.515625 27.296875 
Q 5.515625 40.1875 11.734375 48.09375 
Q 17.96875 56 27.875 56 
Q 33.9375 56 38.25 53.625 
Q 42.578125 51.265625 45.40625 46.390625 
z
M 14.796875 27.296875 
Q 14.796875 17.390625 18.875 11.75 
Q 22.953125 6.109375 30.078125 6.109375 
Q 37.203125 6.109375 41.296875 11.75 
Q 45.40625 17.390625 45.40625 27.296875 
Q 45.40625 37.203125 41.296875 42.84375 
Q 37.203125 48.484375 30.078125 48.484375 
Q 22.953125 48.484375 18.875 42.84375 
Q 14.796875 37.203125 14.796875 27.296875 
z
" id="DejaVuSans-64"/>
      <path d="M 8.5 21.578125 
L 8.5 54.6875 
L 17.484375 54.6875 
L 17.484375 21.921875 
Q 17.484375 14.15625 20.5 10.265625 
Q 23.53125 6.390625 29.59375 6.390625 
Q 36.859375 6.390625 41.078125 11.03125 
Q 45.3125 15.671875 45.3125 23.6875 
L 45.3125 54.6875 
L 54.296875 54.6875 
L 54.296875 0 
L 45.3125 0 
L 45.3125 8.40625 
Q 42.046875 3.421875 37.71875 1 
Q 33.40625 -1.421875 27.6875 -1.421875 
Q 18.265625 -1.421875 13.375 4.4375 
Q 8.5 10.296875 8.5 21.578125 
z
M 31.109375 56 
z
" id="DejaVuSans-75"/>
      <path id="DejaVuSans-20"/>
      <path d="M 54.890625 33.015625 
L 54.890625 0 
L 45.90625 0 
L 45.90625 32.71875 
Q 45.90625 40.484375 42.875 44.328125 
Q 39.84375 48.1875 33.796875 48.1875 
Q 26.515625 48.1875 22.3125 43.546875 
Q 18.109375 38.921875 18.109375 30.90625 
L 18.109375 0 
L 9.078125 0 
L 9.078125 54.6875 
L 18.109375 54.6875 
L 18.109375 46.1875 
Q 21.34375 51.125 25.703125 53.5625 
Q 30.078125 56 35.796875 56 
Q 45.21875 56 50.046875 50.171875 
Q 54.890625 44.34375 54.890625 33.015625 
z
" id="DejaVuSans-6e"/>
      <path d="M 54.890625 54.6875 
L 35.109375 28.078125 
L 55.90625 0 
L 45.3125 0 
L 29.390625 21.484375 
L 13.484375 0 
L 2.875 0 
L 24.125 28.609375 
L 4.6875 54.6875 
L 15.28125 54.6875 
L 29.78125 35.203125 
L 44.28125 54.6875 
z
" id="DejaVuSans-78"/>
     </defs>
     <g transform="translate(207.557813 332.326562)scale(0.1 -0.1)">
      <use xlink:href="#DejaVuSans-52"/>
      <use x="69.419922" xlink:href="#DejaVuSans-65"/>
      <use x="130.943359" xlink:href="#DejaVuSans-73"/>
      <use x="183.042969" xlink:href="#DejaVuSans-69"/>
      <use x="210.826172" xlink:href="#DejaVuSans-64"/>
      <use x="274.302734" xlink:href="#DejaVuSans-75"/>
      <use x="337.681641" xlink:href="#DejaVuSans-65"/>
      <use x="399.205078" xlink:href="#DejaVuSans-20"/>
      <use x="430.992188" xlink:href="#DejaVuSans-69"/>
      <use x="458.775391" xlink:href="#DejaVuSans-6e"/>
      <use x="522.154297" xlink:href="#DejaVuSans-64"/>
      <use x="585.630859" xlink:href="#DejaVuSans-65"/>
      <use x="647.138672" xlink:href="#DejaVuSans-78"/>
     </g>
    </g>
   </g>
   <g id="matplotlib.axis_2">
    <g id="ytick_1">
     <g id="line2d_26">
      <defs>
       <path d="M 0 0 
L -3.5 0 
" id="md80994774c" style="stroke:#000000;stroke-width:0.8;"/>
      </defs>
      <g>
       <use style="stroke:#000000;stroke-width:0.8;" x="38.27" xlink:href="#md80994774c" y="236.356348"/>
      </g>
     </g>
     <g id="text_27">
      <!-- 1 -->
      <g transform="translate(24.9075 240.155567)scale(0.1 -0.1)">
       <use xlink:href="#DejaVuSans-31"/>
      </g>
     </g>
    </g>
    <g id="ytick_2">
     <g id="line2d_27">
      <g>
       <use style="stroke:#000000;stroke-width:0.8;" x="38.27" xlink:href="#md80994774c" y="181.033078"/>
      </g>
     </g>
     <g id="text_28">
      <!-- 2 -->
      <g transform="translate(24.9075 184.832296)scale(0.1 -0.1)">
       <use xlink:href="#DejaVuSans-32"/>
      </g>
     </g>
    </g>
    <g id="ytick_3">
     <g id="line2d_28">
      <g>
       <use style="stroke:#000000;stroke-width:0.8;" x="38.27" xlink:href="#md80994774c" y="125.709807"/>
      </g>
     </g>
     <g id="text_29">
      <!-- 3 -->
      <g transform="translate(24.9075 129.509026)scale(0.1 -0.1)">
       <use xlink:href="#DejaVuSans-33"/>
      </g>
     </g>
    </g>
    <g id="ytick_4">
     <g id="line2d_29">
      <g>
       <use style="stroke:#000000;stroke-width:0.8;" x="38.27" xlink:href="#md80994774c" y="70.386536"/>
      </g>
     </g>
     <g id="text_30">
      <!-- 4 -->
      <g transform="translate(24.9075 74.185755)scale(0.1 -0.1)">
       <use xlink:href="#DejaVuSans-34"/>
      </g>
     </g>
    </g>
    <g id="ytick_5">
     <g id="line2d_30">
      <g>
       <use style="stroke:#000000;stroke-width:0.8;" x="38.27" xlink:href="#md80994774c" y="15.063265"/>
      </g>
     </g>
     <g id="text_31">
      <!-- 5 -->
      <g transform="translate(24.9075 18.862484)scale(0.1 -0.1)">
       <use xlink:href="#DejaVuSans-35"/>
      </g>
     </g>
    </g>
    <g id="text_32">
     <!-- RMSF -->
     <defs>
      <path d="M 9.8125 72.90625 
L 24.515625 72.90625 
L 43.109375 23.296875 
L 61.8125 72.90625 
L 76.515625 72.90625 
L 76.515625 0 
L 66.890625 0 
L 66.890625 64.015625 
L 48.09375 14.015625 
L 38.1875 14.015625 
L 19.390625 64.015625 
L 19.390625 0 
L 9.8125 0 
z
" id="DejaVuSans-4d"/>
      <path d="M 53.515625 70.515625 
L 53.515625 60.890625 
Q 47.90625 63.578125 42.921875 64.890625 
Q 37.9375 66.21875 33.296875 66.21875 
Q 25.25 66.21875 20.875 63.09375 
Q 16.5 59.96875 16.5 54.203125 
Q 16.5 49.359375 19.40625 46.890625 
Q 22.3125 44.4375 30.421875 42.921875 
L 36.375 41.703125 
Q 47.40625 39.59375 52.65625 34.296875 
Q 57.90625 29 57.90625 20.125 
Q 57.90625 9.515625 50.796875 4.046875 
Q 43.703125 -1.421875 29.984375 -1.421875 
Q 24.8125 -1.421875 18.96875 -0.25 
Q 13.140625 0.921875 6.890625 3.21875 
L 6.890625 13.375 
Q 12.890625 10.015625 18.65625 8.296875 
Q 24.421875 6.59375 29.984375 6.59375 
Q 38.421875 6.59375 43.015625 9.90625 
Q 47.609375 13.234375 47.609375 19.390625 
Q 47.609375 24.75 44.3125 27.78125 
Q 41.015625 30.8125 33.5 32.328125 
L 27.484375 33.5 
Q 16.453125 35.6875 11.515625 40.375 
Q 6.59375 45.0625 6.59375 53.421875 
Q 6.59375 63.09375 13.40625 68.65625 
Q 20.21875 74.21875 32.171875 74.21875 
Q 37.3125 74.21875 42.625 73.28125 
Q 47.953125 72.359375 53.515625 70.515625 
z
" id="DejaVuSans-53"/>
      <path d="M 9.8125 72.90625 
L 51.703125 72.90625 
L 51.703125 64.59375 
L 19.671875 64.59375 
L 19.671875 43.109375 
L 48.578125 43.109375 
L 48.578125 34.8125 
L 19.671875 34.8125 
L 19.671875 0 
L 9.8125 0 
z
" id="DejaVuSans-46"/>
     </defs>
     <g transform="translate(18.827813 164.398281)rotate(-90)scale(0.1 -0.1)">
      <use xlink:href="#DejaVuSans-52"/>
      <use x="69.482422" xlink:href="#DejaVuSans-4d"/>
      <use x="155.761719" xlink:href="#DejaVuSans-53"/>
      <use x="219.238281" xlink:href="#DejaVuSans-46"/>
     </g>
    </g>
   </g>
   <g id="line2d_31">
    <path clip-path="url(#p444cfd334b)" d="M 38.27 188.337712 
L 40.336717 198.368294 
L 42.403434 185.479838 
L 44.470152 183.390792 
L 46.536869 203.71142 
L 48.603586 171.280486 
L 50.670303 204.652353 
L 52.73702 164.085161 
L 54.803737 140.106814 
L 56.870455 160.238845 
L 58.937172 144.898464 
L 61.003889 159.906019 
L 63.070606 224.710999 
L 65.137323 208.9212 
L 67.20404 183.137321 
L 69.270758 232.237546 
L 71.337475 253.42747 
L 73.404192 224.167134 
L 75.470909 245.661509 
L 77.537626 255.588973 
L 79.604343 263.216331 
L 81.671061 250.242654 
L 83.737778 248.536112 
L 85.804495 218.487314 
L 87.871212 204.26482 
L 89.937929 81.375074 
L 92.004646 59.335126 
L 94.071364 25.796364 
L 96.138081 30.081573 
L 98.204798 97.701097 
L 100.271515 206.184866 
L 102.338232 237.784337 
L 104.404949 243.080665 
L 106.471667 259.624672 
L 108.538384 261.052402 
L 110.605101 263.829655 
L 112.671818 253.449667 
L 114.738535 227.409145 
L 116.805253 88.324235 
L 118.87197 103.027644 
L 120.938687 224.565572 
L 123.005404 256.23248 
L 125.072121 271.770973 
L 127.138838 272.866577 
L 129.205556 262.17583 
L 131.272273 243.822759 
L 133.33899 240.035263 
L 135.405707 224.786934 
L 137.472424 231.096724 
L 139.539141 244.035398 
L 141.605859 269.639451 
L 143.672576 260.959159 
L 145.739293 260.854728 
L 147.80601 259.095818 
L 149.872727 258.32778 
L 151.939444 266.73435 
L 154.006162 236.593253 
L 156.072879 229.119649 
L 158.139596 225.54678 
L 160.206313 198.451014 
L 162.27303 176.870639 
L 164.339747 205.407526 
L 166.406465 205.411456 
L 168.473182 239.658429 
L 170.539899 265.426481 
L 172.606616 262.704502 
L 174.673333 271.825057 
L 176.740051 273.503989 
L 178.806768 270.697599 
L 180.873485 272.670435 
L 185.006919 274.252879 
L 187.073636 267.90514 
L 189.140354 242.008875 
L 191.207071 206.31743 
L 193.273788 192.632549 
L 195.340505 166.907911 
L 197.407222 137.957732 
L 199.473939 180.794228 
L 201.540657 193.632475 
L 203.607374 236.75596 
L 205.674091 259.438392 
L 207.740808 272.965141 
L 211.874242 272.207952 
L 213.94096 271.097416 
L 216.007677 253.558301 
L 218.074394 243.584933 
L 220.141111 242.300182 
L 222.207828 201.011071 
L 224.274545 198.654084 
L 226.341263 215.656435 
L 228.40798 192.130631 
L 230.474697 170.783868 
L 232.541414 146.296294 
L 234.608131 164.295189 
L 236.674848 175.628678 
L 238.741566 175.546783 
L 240.808283 142.473698 
L 242.875 198.072582 
L 244.941717 206.648307 
L 247.008434 245.535105 
L 249.075152 251.194351 
L 251.141869 261.075564 
L 253.208586 263.162025 
L 255.275303 265.029515 
L 257.34202 261.506336 
L 259.408737 252.439392 
L 261.475455 236.715786 
L 263.542172 223.432582 
L 265.608889 237.876007 
L 267.675606 240.650563 
L 269.742323 256.364254 
L 271.80904 252.241263 
L 273.875758 253.777572 
L 275.942475 256.219869 
L 278.009192 239.912029 
L 280.075909 218.177777 
L 282.142626 188.583664 
L 284.209343 153.449631 
L 286.276061 221.828457 
L 288.342778 249.912665 
L 290.409495 262.152535 
L 292.476212 255.67679 
L 294.542929 262.679828 
L 296.609646 274.70093 
L 298.676364 273.328976 
L 300.743081 271.09944 
L 302.809798 261.584868 
L 304.876515 244.952186 
L 306.943232 207.015111 
L 309.009949 132.258954 
L 311.076667 112.869446 
L 313.143384 65.046885 
L 315.210101 116.775075 
L 317.276818 83.828526 
L 319.343535 173.672702 
L 321.410253 231.644425 
L 323.47697 238.464151 
L 325.543687 238.703604 
L 327.610404 239.078146 
L 329.677121 255.374426 
L 331.743838 265.883508 
L 333.810556 267.097918 
L 335.877273 269.492942 
L 337.94399 275.323636 
L 340.010707 274.606314 
L 342.077424 265.029924 
L 344.144141 239.49581 
L 346.210859 203.898465 
L 348.277576 195.694683 
L 350.344293 235.667364 
L 352.41101 223.432984 
L 354.477727 209.543759 
L 356.544444 213.908633 
L 358.611162 230.321014 
L 360.677879 204.354548 
L 362.744596 215.497373 
L 364.811313 209.918728 
L 366.87803 251.814051 
L 368.944747 268.237823 
L 371.011465 269.95084 
L 373.078182 274.587624 
L 375.144899 270.010758 
L 377.211616 268.10828 
L 379.278333 260.228114 
L 381.345051 261.823955 
L 383.411768 258.472269 
L 385.478485 246.537837 
L 387.545202 194.473987 
L 389.611919 173.775757 
L 391.678636 157.030738 
L 393.745354 152.223094 
L 395.812071 204.631614 
L 397.878788 246.075434 
L 399.945505 255.036838 
L 402.012222 248.717926 
L 404.078939 258.853138 
L 406.145657 258.007976 
L 408.212374 268.201054 
L 410.279091 267.704965 
L 412.345808 274.114177 
L 414.412525 269.084932 
L 416.479242 254.390029 
L 418.54596 238.528925 
L 420.612677 204.079029 
L 422.679394 183.410107 
L 424.746111 220.729327 
L 426.812828 228.636214 
L 428.879545 229.268083 
L 430.946263 239.836474 
L 433.01298 248.77061 
L 435.079697 243.477872 
L 437.146414 250.543569 
L 439.213131 249.184977 
L 441.279848 244.61153 
L 443.346566 238.324783 
L 445.413283 207.975845 
L 447.48 123.123111 
L 447.48 123.123111 
" style="fill:none;stroke:#666666;stroke-dasharray:1,1.65;stroke-dashoffset:0;"/>
    <defs>
     <path d="M 0 0.5 
C 0.132602 0.5 0.25979 0.447317 0.353553 0.353553 
C 0.447317 0.25979 0.5 0.132602 0.5 0 
C 0.5 -0.132602 0.447317 -0.25979 0.353553 -0.353553 
C 0.25979 -0.447317 0.132602 -0.5 0 -0.5 
C -0.132602 -0.5 -0.25979 -0.447317 -0.353553 -0.353553 
C -0.447317 -0.25979 -0.5 -0.132602 -0.5 0 
C -0.5 0.132602 -0.447317 0.25979 -0.353553 0.353553 
C -0.25979 0.447317 -0.132602 0.5 0 0.5 
z
" id="m6e91167a15" style="stroke:#666666;"/>
    </defs>
    <g clip-path="url(#p444cfd334b)">
     <use style="fill:#666666;stroke:#666666;" x="38.27" xlink:href="#m6e91167a15" y="188.337712"/>
     <use style="fill:#666666;stroke:#666666;" x="40.336717" xlink:href="#m6e91167a15" y="198.368294"/>
     <use style="fill:#666666;stroke:#666666;" x="42.403434" xlink:href="#m6e91167a15" y="185.479838"/>
     <use style="fill:#666666;stroke:#666666;" x="44.470152" xlink:href="#m6e91167a15" y="183.390792"/>
     <use style="fill:#666666;stroke:#666666;" x="46.536869" xlink:href="#m6e91167a15" y="203.71142"/>
     <use style="fill:#666666;stroke:#666666;" x="48.603586" xlink:href="#m6e91167a15" y="171.280486"/>
     <use style="fill:#666666;stroke:#666666;" x="50.670303" xlink:href="#m6e91167a15" y="204.652353"/>
     <use style="fill:#666666;stroke:#666666;" x="52.73702" xlink:href="#m6e91167a15" y="164.085161"/>
     <use style="fill:#666666;stroke:#666666;" x="54.803737" xlink:href="#m6e91167a15" y="140.106814"/>
     <use style="fill:#666666;stroke:#666666;" x="56.870455" xlink:href="#m6e91167a15" y="160.238845"/>
     <use style="fill:#666666;stroke:#666666;" x="58.937172" xlink:href="#m6e91167a15" y="144.898464"/>
     <use style="fill:#666666;stroke:#666666;" x="61.003889" xlink:href="#m6e91167a15" y="159.906019"/>
     <use style="fill:#666666;stroke:#666666;" x="63.070606" xlink:href="#m6e91167a15" y="224.710999"/>
     <use style="fill:#666666;stroke:#666666;" x="65.137323" xlink:href="#m6e91167a15" y="208.9212"/>
     <use style="fill:#666666;stroke:#666666;" x="67.20404" xlink:href="#m6e91167a15" y="183.137321"/>
     <use style="fill:#666666;stroke:#666666;" x="69.270758" xlink:href="#m6e91167a15" y="232.237546"/>
     <use style="fill:#666666;stroke:#666666;" x="71.337475" xlink:href="#m6e91167a15" y="253.42747"/>
     <use style="fill:#666666;stroke:#666666;" x="73.404192" xlink:href="#m6e91167a15" y="224.167134"/>
     <use style="fill:#666666;stroke:#666666;" x="75.470909" xlink:href="#m6e91167a15" y="245.661509"/>
     <use style="fill:#666666;stroke:#666666;" x="77.537626" xlink:href="#m6e91167a15" y="255.588973"/>
     <use style="fill:#666666;stroke:#666666;" x="79.604343" xlink:href="#m6e91167a15" y="263.216331"/>
     <use style="fill:#666666;stroke:#666666;" x="81.671061" xlink:href="#m6e91167a15" y="250.242654"/>
     <use style="fill:#666666;stroke:#666666;" x="83.737778" xlink:href="#m6e91167a15" y="248.536112"/>
     <use style="fill:#666666;stroke:#666666;" x="85.804495" xlink:href="#m6e91167a15" y="218.487314"/>
     <use style="fill:#666666;stroke:#666666;" x="87.871212" xlink:href="#m6e91167a15" y="204.26482"/>
     <use style="fill:#666666;stroke:#666666;" x="89.937929" xlink:href="#m6e91167a15" y="81.375074"/>
     <use style="fill:#666666;stroke:#666666;" x="92.004646" xlink:href="#m6e91167a15" y="59.335126"/>
     <use style="fill:#666666;stroke:#666666;" x="94.071364" xlink:href="#m6e91167a15" y="25.796364"/>
     <use style="fill:#666666;stroke:#666666;" x="96.138081" xlink:href="#m6e91167a15" y="30.081573"/>
     <use style="fill:#666666;stroke:#666666;" x="98.204798" xlink:href="#m6e91167a15" y="97.701097"/>
     <use style="fill:#666666;stroke:#666666;" x="100.271515" xlink:href="#m6e91167a15" y="206.184866"/>
     <use style="fill:#666666;stroke:#666666;" x="102.338232" xlink:href="#m6e91167a15" y="237.784337"/>
     <use style="fill:#666666;stroke:#666666;" x="104.404949" xlink:href="#m6e91167a15" y="243.080665"/>
     <use style="fill:#666666;stroke:#666666;" x="106.471667" xlink:href="#m6e91167a15" y="259.624672"/>
     <use style="fill:#666666;stroke:#666666;" x="108.538384" xlink:href="#m6e91167a15" y="261.052402"/>
     <use style="fill:#666666;stroke:#666666;" x="110.605101" xlink:href="#m6e91167a15" y="263.829655"/>
     <use style="fill:#666666;stroke:#666666;" x="112.671818" xlink:href="#m6e91167a15" y="253.449667"/>
     <use style="fill:#666666;stroke:#666666;" x="114.738535" xlink:href="#m6e91167a15" y="227.409145"/>
     <use style="fill:#666666;stroke:#666666;" x="116.805253" xlink:href="#m6e91167a15" y="88.324235"/>
     <use style="fill:#666666;stroke:#666666;" x="118.87197" xlink:href="#m6e91167a15" y="103.027644"/>
     <use style="fill:#666666;stroke:#666666;" x="120.938687" xlink:href="#m6e91167a15" y="224.565572"/>
     <use style="fill:#666666;stroke:#666666;" x="123.005404" xlink:href="#m6e91167a15" y="256.23248"/>
     <use style="fill:#666666;stroke:#666666;" x="125.072121" xlink:href="#m6e91167a15" y="271.770973"/>
     <use style="fill:#666666;stroke:#666666;" x="127.138838" xlink:href="#m6e91167a15" y="272.866577"/>
     <use style="fill:#666666;stroke:#666666;" x="129.205556" xlink:href="#m6e91167a15" y="262.17583"/>
     <use style="fill:#666666;stroke:#666666;" x="131.272273" xlink:href="#m6e91167a15" y="243.822759"/>
     <use style="fill:#666666;stroke:#666666;" x="133.33899" xlink:href="#m6e91167a15" y="240.035263"/>
     <use style="fill:#666666;stroke:#666666;" x="135.405707" xlink:href="#m6e91167a15" y="224.786934"/>
     <use style="fill:#666666;stroke:#666666;" x="137.472424" xlink:href="#m6e91167a15" y="231.096724"/>
     <use style="fill:#666666;stroke:#666666;" x="139.539141" xlink:href="#m6e91167a15" y="244.035398"/>
     <use style="fill:#666666;stroke:#666666;" x="141.605859" xlink:href="#m6e91167a15" y="269.639451"/>
     <use style="fill:#666666;stroke:#666666;" x="143.672576" xlink:href="#m6e91167a15" y="260.959159"/>
     <use style="fill:#666666;stroke:#666666;" x="145.739293" xlink:href="#m6e91167a15" y="260.854728"/>
     <use style="fill:#666666;stroke:#666666;" x="147.80601" xlink:href="#m6e91167a15" y="259.095818"/>
     <use style="fill:#666666;stroke:#666666;" x="149.872727" xlink:href="#m6e91167a15" y="258.32778"/>
     <use style="fill:#666666;stroke:#666666;" x="151.939444" xlink:href="#m6e91167a15" y="266.73435"/>
     <use style="fill:#666666;stroke:#666666;" x="154.006162" xlink:href="#m6e91167a15" y="236.593253"/>
     <use style="fill:#666666;stroke:#666666;" x="156.072879" xlink:href="#m6e91167a15" y="229.119649"/>
     <use style="fill:#666666;stroke:#666666;" x="158.139596" xlink:href="#m6e91167a15" y="225.54678"/>
     <use style="fill:#666666;stroke:#666666;" x="160.206313" xlink:href="#m6e91167a15" y="198.451014"/>
     <use style="fill:#666666;stroke:#666666;" x="162.27303" xlink:href="#m6e91167a15" y="176.870639"/>
     <use style="fill:#666666;stroke:#666666;" x="164.339747" xlink:href="#m6e91167a15" y="205.407526"/>
     <use style="fill:#666666;stroke:#666666;" x="166.406465" xlink:href="#m6e91167a15" y="205.411456"/>
     <use style="fill:#666666;stroke:#666666;" x="168.473182" xlink:href="#m6e91167a15" y="239.658429"/>
     <use style="fill:#666666;stroke:#666666;" x="170.539899" xlink:href="#m6e91167a15" y="265.426481"/>
     <use style="fill:#666666;stroke:#666666;" x="172.606616" xlink:href="#m6e91167a15" y="262.704502"/>
     <use style="fill:#666666;stroke:#666666;" x="174.673333" xlink:href="#m6e91167a15" y="271.825057"/>
     <use style="fill:#666666;stroke:#666666;" x="176.740051" xlink:href="#m6e91167a15" y="273.503989"/>
     <use style="fill:#666666;stroke:#666666;" x="178.806768" xlink:href="#m6e91167a15" y="270.697599"/>
     <use style="fill:#666666;stroke:#666666;" x="180.873485" xlink:href="#m6e91167a15" y="272.670435"/>
     <use style="fill:#666666;stroke:#666666;" x="182.940202" xlink:href="#m6e91167a15" y="273.496609"/>
     <use style="fill:#666666;stroke:#666666;" x="185.006919" xlink:href="#m6e91167a15" y="274.252879"/>
     <use style="fill:#666666;stroke:#666666;" x="187.073636" xlink:href="#m6e91167a15" y="267.90514"/>
     <use style="fill:#666666;stroke:#666666;" x="189.140354" xlink:href="#m6e91167a15" y="242.008875"/>
     <use style="fill:#666666;stroke:#666666;" x="191.207071" xlink:href="#m6e91167a15" y="206.31743"/>
     <use style="fill:#666666;stroke:#666666;" x="193.273788" xlink:href="#m6e91167a15" y="192.632549"/>
     <use style="fill:#666666;stroke:#666666;" x="195.340505" xlink:href="#m6e91167a15" y="166.907911"/>
     <use style="fill:#666666;stroke:#666666;" x="197.407222" xlink:href="#m6e91167a15" y="137.957732"/>
     <use style="fill:#666666;stroke:#666666;" x="199.473939" xlink:href="#m6e91167a15" y="180.794228"/>
     <use style="fill:#666666;stroke:#666666;" x="201.540657" xlink:href="#m6e91167a15" y="193.632475"/>
     <use style="fill:#666666;stroke:#666666;" x="203.607374" xlink:href="#m6e91167a15" y="236.75596"/>
     <use style="fill:#666666;stroke:#666666;" x="205.674091" xlink:href="#m6e91167a15" y="259.438392"/>
     <use style="fill:#666666;stroke:#666666;" x="207.740808" xlink:href="#m6e91167a15" y="272.965141"/>
     <use style="fill:#666666;stroke:#666666;" x="209.807525" xlink:href="#m6e91167a15" y="272.543457"/>
     <use style="fill:#666666;stroke:#666666;" x="211.874242" xlink:href="#m6e91167a15" y="272.207952"/>
     <use style="fill:#666666;stroke:#666666;" x="213.94096" xlink:href="#m6e91167a15" y="271.097416"/>
     <use style="fill:#666666;stroke:#666666;" x="216.007677" xlink:href="#m6e91167a15" y="253.558301"/>
     <use style="fill:#666666;stroke:#666666;" x="218.074394" xlink:href="#m6e91167a15" y="243.584933"/>
     <use style="fill:#666666;stroke:#666666;" x="220.141111" xlink:href="#m6e91167a15" y="242.300182"/>
     <use style="fill:#666666;stroke:#666666;" x="222.207828" xlink:href="#m6e91167a15" y="201.011071"/>
     <use style="fill:#666666;stroke:#666666;" x="224.274545" xlink:href="#m6e91167a15" y="198.654084"/>
     <use style="fill:#666666;stroke:#666666;" x="226.341263" xlink:href="#m6e91167a15" y="215.656435"/>
     <use style="fill:#666666;stroke:#666666;" x="228.40798" xlink:href="#m6e91167a15" y="192.130631"/>
     <use style="fill:#666666;stroke:#666666;" x="230.474697" xlink:href="#m6e91167a15" y="170.783868"/>
     <use style="fill:#666666;stroke:#666666;" x="232.541414" xlink:href="#m6e91167a15" y="146.296294"/>
     <use style="fill:#666666;stroke:#666666;" x="234.608131" xlink:href="#m6e91167a15" y="164.295189"/>
     <use style="fill:#666666;stroke:#666666;" x="236.674848" xlink:href="#m6e91167a15" y="175.628678"/>
     <use style="fill:#666666;stroke:#666666;" x="238.741566" xlink:href="#m6e91167a15" y="175.546783"/>
     <use style="fill:#666666;stroke:#666666;" x="240.808283" xlink:href="#m6e91167a15" y="142.473698"/>
     <use style="fill:#666666;stroke:#666666;" x="242.875" xlink:href="#m6e91167a15" y="198.072582"/>
     <use style="fill:#666666;stroke:#666666;" x="244.941717" xlink:href="#m6e91167a15" y="206.648307"/>
     <use style="fill:#666666;stroke:#666666;" x="247.008434" xlink:href="#m6e91167a15" y="245.535105"/>
     <use style="fill:#666666;stroke:#666666;" x="249.075152" xlink:href="#m6e91167a15" y="251.194351"/>
     <use style="fill:#666666;stroke:#666666;" x="251.141869" xlink:href="#m6e91167a15" y="261.075564"/>
     <use style="fill:#666666;stroke:#666666;" x="253.208586" xlink:href="#m6e91167a15" y="263.162025"/>
     <use style="fill:#666666;stroke:#666666;" x="255.275303" xlink:href="#m6e91167a15" y="265.029515"/>
     <use style="fill:#666666;stroke:#666666;" x="257.34202" xlink:href="#m6e91167a15" y="261.506336"/>
     <use style="fill:#666666;stroke:#666666;" x="259.408737" xlink:href="#m6e91167a15" y="252.439392"/>
     <use style="fill:#666666;stroke:#666666;" x="261.475455" xlink:href="#m6e91167a15" y="236.715786"/>
     <use style="fill:#666666;stroke:#666666;" x="263.542172" xlink:href="#m6e91167a15" y="223.432582"/>
     <use style="fill:#666666;stroke:#666666;" x="265.608889" xlink:href="#m6e91167a15" y="237.876007"/>
     <use style="fill:#666666;stroke:#666666;" x="267.675606" xlink:href="#m6e91167a15" y="240.650563"/>
     <use style="fill:#666666;stroke:#666666;" x="269.742323" xlink:href="#m6e91167a15" y="256.364254"/>
     <use style="fill:#666666;stroke:#666666;" x="271.80904" xlink:href="#m6e91167a15" y="252.241263"/>
     <use style="fill:#666666;stroke:#666666;" x="273.875758" xlink:href="#m6e91167a15" y="253.777572"/>
     <use style="fill:#666666;stroke:#666666;" x="275.942475" xlink:href="#m6e91167a15" y="256.219869"/>
     <use style="fill:#666666;stroke:#666666;" x="278.009192" xlink:href="#m6e91167a15" y="239.912029"/>
     <use style="fill:#666666;stroke:#666666;" x="280.075909" xlink:href="#m6e91167a15" y="218.177777"/>
     <use style="fill:#666666;stroke:#666666;" x="282.142626" xlink:href="#m6e91167a15" y="188.583664"/>
     <use style="fill:#666666;stroke:#666666;" x="284.209343" xlink:href="#m6e91167a15" y="153.449631"/>
     <use style="fill:#666666;stroke:#666666;" x="286.276061" xlink:href="#m6e91167a15" y="221.828457"/>
     <use style="fill:#666666;stroke:#666666;" x="288.342778" xlink:href="#m6e91167a15" y="249.912665"/>
     <use style="fill:#666666;stroke:#666666;" x="290.409495" xlink:href="#m6e91167a15" y="262.152535"/>
     <use style="fill:#666666;stroke:#666666;" x="292.476212" xlink:href="#m6e91167a15" y="255.67679"/>
     <use style="fill:#666666;stroke:#666666;" x="294.542929" xlink:href="#m6e91167a15" y="262.679828"/>
     <use style="fill:#666666;stroke:#666666;" x="296.609646" xlink:href="#m6e91167a15" y="274.70093"/>
     <use style="fill:#666666;stroke:#666666;" x="298.676364" xlink:href="#m6e91167a15" y="273.328976"/>
     <use style="fill:#666666;stroke:#666666;" x="300.743081" xlink:href="#m6e91167a15" y="271.09944"/>
     <use style="fill:#666666;stroke:#666666;" x="302.809798" xlink:href="#m6e91167a15" y="261.584868"/>
     <use style="fill:#666666;stroke:#666666;" x="304.876515" xlink:href="#m6e91167a15" y="244.952186"/>
     <use style="fill:#666666;stroke:#666666;" x="306.943232" xlink:href="#m6e91167a15" y="207.015111"/>
     <use style="fill:#666666;stroke:#666666;" x="309.009949" xlink:href="#m6e91167a15" y="132.258954"/>
     <use style="fill:#666666;stroke:#666666;" x="311.076667" xlink:href="#m6e91167a15" y="112.869446"/>
     <use style="fill:#666666;stroke:#666666;" x="313.143384" xlink:href="#m6e91167a15" y="65.046885"/>
     <use style="fill:#666666;stroke:#666666;" x="315.210101" xlink:href="#m6e91167a15" y="116.775075"/>
     <use style="fill:#666666;stroke:#666666;" x="317.276818" xlink:href="#m6e91167a15" y="83.828526"/>
     <use style="fill:#666666;stroke:#666666;" x="319.343535" xlink:href="#m6e91167a15" y="173.672702"/>
     <use style="fill:#666666;stroke:#666666;" x="321.410253" xlink:href="#m6e91167a15" y="231.644425"/>
     <use style="fill:#666666;stroke:#666666;" x="323.47697" xlink:href="#m6e91167a15" y="238.464151"/>
     <use style="fill:#666666;stroke:#666666;" x="325.543687" xlink:href="#m6e91167a15" y="238.703604"/>
     <use style="fill:#666666;stroke:#666666;" x="327.610404" xlink:href="#m6e91167a15" y="239.078146"/>
     <use style="fill:#666666;stroke:#666666;" x="329.677121" xlink:href="#m6e91167a15" y="255.374426"/>
     <use style="fill:#666666;stroke:#666666;" x="331.743838" xlink:href="#m6e91167a15" y="265.883508"/>
     <use style="fill:#666666;stroke:#666666;" x="333.810556" xlink:href="#m6e91167a15" y="267.097918"/>
     <use style="fill:#666666;stroke:#666666;" x="335.877273" xlink:href="#m6e91167a15" y="269.492942"/>
     <use style="fill:#666666;stroke:#666666;" x="337.94399" xlink:href="#m6e91167a15" y="275.323636"/>
     <use style="fill:#666666;stroke:#666666;" x="340.010707" xlink:href="#m6e91167a15" y="274.606314"/>
     <use style="fill:#666666;stroke:#666666;" x="342.077424" xlink:href="#m6e91167a15" y="265.029924"/>
     <use style="fill:#666666;stroke:#666666;" x="344.144141" xlink:href="#m6e91167a15" y="239.49581"/>
     <use style="fill:#666666;stroke:#666666;" x="346.210859" xlink:href="#m6e91167a15" y="203.898465"/>
     <use style="fill:#666666;stroke:#666666;" x="348.277576" xlink:href="#m6e91167a15" y="195.694683"/>
     <use style="fill:#666666;stroke:#666666;" x="350.344293" xlink:href="#m6e91167a15" y="235.667364"/>
     <use style="fill:#666666;stroke:#666666;" x="352.41101" xlink:href="#m6e91167a15" y="223.432984"/>
     <use style="fill:#666666;stroke:#666666;" x="354.477727" xlink:href="#m6e91167a15" y="209.543759"/>
     <use style="fill:#666666;stroke:#666666;" x="356.544444" xlink:href="#m6e91167a15" y="213.908633"/>
     <use style="fill:#666666;stroke:#666666;" x="358.611162" xlink:href="#m6e91167a15" y="230.321014"/>
     <use style="fill:#666666;stroke:#666666;" x="360.677879" xlink:href="#m6e91167a15" y="204.354548"/>
     <use style="fill:#666666;stroke:#666666;" x="362.744596" xlink:href="#m6e91167a15" y="215.497373"/>
     <use style="fill:#666666;stroke:#666666;" x="364.811313" xlink:href="#m6e91167a15" y="209.918728"/>
     <use style="fill:#666666;stroke:#666666;" x="366.87803" xlink:href="#m6e91167a15" y="251.814051"/>
     <use style="fill:#666666;stroke:#666666;" x="368.944747" xlink:href="#m6e91167a15" y="268.237823"/>
     <use style="fill:#666666;stroke:#666666;" x="371.011465" xlink:href="#m6e91167a15" y="269.95084"/>
     <use style="fill:#666666;stroke:#666666;" x="373.078182" xlink:href="#m6e91167a15" y="274.587624"/>
     <use style="fill:#666666;stroke:#666666;" x="375.144899" xlink:href="#m6e91167a15" y="270.010758"/>
     <use style="fill:#666666;stroke:#666666;" x="377.211616" xlink:href="#m6e91167a15" y="268.10828"/>
     <use style="fill:#666666;stroke:#666666;" x="379.278333" xlink:href="#m6e91167a15" y="260.228114"/>
     <use style="fill:#666666;stroke:#666666;" x="381.345051" xlink:href="#m6e91167a15" y="261.823955"/>
     <use style="fill:#666666;stroke:#666666;" x="383.411768" xlink:href="#m6e91167a15" y="258.472269"/>
     <use style="fill:#666666;stroke:#666666;" x="385.478485" xlink:href="#m6e91167a15" y="246.537837"/>
     <use style="fill:#666666;stroke:#666666;" x="387.545202" xlink:href="#m6e91167a15" y="194.473987"/>
     <use style="fill:#666666;stroke:#666666;" x="389.611919" xlink:href="#m6e91167a15" y="173.775757"/>
     <use style="fill:#666666;stroke:#666666;" x="391.678636" xlink:href="#m6e91167a15" y="157.030738"/>
     <use style="fill:#666666;stroke:#666666;" x="393.745354" xlink:href="#m6e91167a15" y="152.223094"/>
     <use style="fill:#666666;stroke:#666666;" x="395.812071" xlink:href="#m6e91167a15" y="204.631614"/>
     <use style="fill:#666666;stroke:#666666;" x="397.878788" xlink:href="#m6e91167a15" y="246.075434"/>
     <use style="fill:#666666;stroke:#666666;" x="399.945505" xlink:href="#m6e91167a15" y="255.036838"/>
     <use style="fill:#666666;stroke:#666666;" x="402.012222" xlink:href="#m6e91167a15" y="248.717926"/>
     <use style="fill:#666666;stroke:#666666;" x="404.078939" xlink:href="#m6e91167a15" y="258.853138"/>
     <use style="fill:#666666;stroke:#666666;" x="406.145657" xlink:href="#m6e91167a15" y="258.007976"/>
     <use style="fill:#666666;stroke:#666666;" x="408.212374" xlink:href="#m6e91167a15" y="268.201054"/>
     <use style="fill:#666666;stroke:#666666;" x="410.279091" xlink:href="#m6e91167a15" y="267.704965"/>
     <use style="fill:#666666;stroke:#666666;" x="412.345808" xlink:href="#m6e91167a15" y="274.114177"/>
     <use style="fill:#666666;stroke:#666666;" x="414.412525" xlink:href="#m6e91167a15" y="269.084932"/>
     <use style="fill:#666666;stroke:#666666;" x="416.479242" xlink:href="#m6e91167a15" y="254.390029"/>
     <use style="fill:#666666;stroke:#666666;" x="418.54596" xlink:href="#m6e91167a15" y="238.528925"/>
     <use style="fill:#666666;stroke:#666666;" x="420.612677" xlink:href="#m6e91167a15" y="204.079029"/>
     <use style="fill:#666666;stroke:#666666;" x="422.679394" xlink:href="#m6e91167a15" y="183.410107"/>
     <use style="fill:#666666;stroke:#666666;" x="424.746111" xlink:href="#m6e91167a15" y="220.729327"/>
     <use style="fill:#666666;stroke:#666666;" x="426.812828" xlink:href="#m6e91167a15" y="228.636214"/>
     <use style="fill:#666666;stroke:#666666;" x="428.879545" xlink:href="#m6e91167a15" y="229.268083"/>
     <use style="fill:#666666;stroke:#666666;" x="430.946263" xlink:href="#m6e91167a15" y="239.836474"/>
     <use style="fill:#666666;stroke:#666666;" x="433.01298" xlink:href="#m6e91167a15" y="248.77061"/>
     <use style="fill:#666666;stroke:#666666;" x="435.079697" xlink:href="#m6e91167a15" y="243.477872"/>
     <use style="fill:#666666;stroke:#666666;" x="437.146414" xlink:href="#m6e91167a15" y="250.543569"/>
     <use style="fill:#666666;stroke:#666666;" x="439.213131" xlink:href="#m6e91167a15" y="249.184977"/>
     <use style="fill:#666666;stroke:#666666;" x="441.279848" xlink:href="#m6e91167a15" y="244.61153"/>
     <use style="fill:#666666;stroke:#666666;" x="443.346566" xlink:href="#m6e91167a15" y="238.324783"/>
     <use style="fill:#666666;stroke:#666666;" x="445.413283" xlink:href="#m6e91167a15" y="207.975845"/>
     <use style="fill:#666666;stroke:#666666;" x="447.48" xlink:href="#m6e91167a15" y="123.123111"/>
    </g>
   </g>
   <g id="patch_3">
    <path d="M 38.27 287.8 
L 38.27 13.32 
" style="fill:none;stroke:#000000;stroke-linecap:square;stroke-linejoin:miter;stroke-width:0.8;"/>
   </g>
   <g id="patch_4">
    <path d="M 447.48 287.8 
L 447.48 13.32 
" style="fill:none;stroke:#000000;stroke-linecap:square;stroke-linejoin:miter;stroke-width:0.8;"/>
   </g>
   <g id="patch_5">
    <path d="M 38.27 287.8 
L 447.48 287.8 
" style="fill:none;stroke:#000000;stroke-linecap:square;stroke-linejoin:miter;stroke-width:0.8;"/>
   </g>
   <g id="patch_6">
    <path d="M 38.27 13.32 
L 447.48 13.32 
" style="fill:none;stroke:#000000;stroke-linecap:square;stroke-linejoin:miter;stroke-width:0.8;"/>
   </g>
  </g>
 </g>
 <defs>
  <clipPath id="p444cfd334b">
   <rect height="274.48" width="409.21" x="38.27" y="13.32"/>
  </clipPath>
 </defs>
</svg>
